<mxfile host="app.diagrams.net" modified="2021-11-16T11:38:47.236Z" agent="5.0 (Windows NT 6.1; Win64; x64) AppleWebKit/537.36 (KHTML, like Gecko) Chrome/95.0.4638.69 Safari/537.36" etag="3bRRQI7H9_iYmMM2c8Wu" version="15.7.0" type="github">
  <diagram id="HZZAVYGQlu0y0XqEtcs8" name="Page-1">
    <mxGraphModel dx="1477" dy="481" grid="1" gridSize="10" guides="1" tooltips="1" connect="1" arrows="1" fold="1" page="1" pageScale="1" pageWidth="827" pageHeight="1169" math="0" shadow="0">
      <root>
        <mxCell id="0" />
        <mxCell id="1" parent="0" />
        <mxCell id="O2hOXgRRqyfRxniLhEDF-4" value="" style="edgeStyle=orthogonalEdgeStyle;rounded=0;orthogonalLoop=1;jettySize=auto;html=1;" edge="1" parent="1" source="O2hOXgRRqyfRxniLhEDF-1" target="O2hOXgRRqyfRxniLhEDF-3">
          <mxGeometry relative="1" as="geometry" />
        </mxCell>
        <mxCell id="O2hOXgRRqyfRxniLhEDF-7" value="" style="edgeStyle=orthogonalEdgeStyle;rounded=0;orthogonalLoop=1;jettySize=auto;html=1;" edge="1" parent="1" source="O2hOXgRRqyfRxniLhEDF-1" target="O2hOXgRRqyfRxniLhEDF-6">
          <mxGeometry relative="1" as="geometry" />
        </mxCell>
        <mxCell id="O2hOXgRRqyfRxniLhEDF-1" value="生产线程" style="whiteSpace=wrap;html=1;" vertex="1" parent="1">
          <mxGeometry x="150" y="220" width="120" height="60" as="geometry" />
        </mxCell>
        <mxCell id="O2hOXgRRqyfRxniLhEDF-2" value="&lt;span&gt;httpadapter&lt;/span&gt;" style="text;html=1;align=center;verticalAlign=middle;resizable=0;points=[];autosize=1;strokeColor=none;fillColor=none;" vertex="1" parent="1">
          <mxGeometry x="160" y="160" width="80" height="20" as="geometry" />
        </mxCell>
        <mxCell id="O2hOXgRRqyfRxniLhEDF-3" value="oracle" style="whiteSpace=wrap;html=1;" vertex="1" parent="1">
          <mxGeometry x="-50" y="220" width="120" height="60" as="geometry" />
        </mxCell>
        <mxCell id="O2hOXgRRqyfRxniLhEDF-5" value="扫描日志表" style="text;html=1;align=center;verticalAlign=middle;resizable=0;points=[];autosize=1;strokeColor=none;fillColor=none;" vertex="1" parent="1">
          <mxGeometry x="60" y="230" width="80" height="20" as="geometry" />
        </mxCell>
        <mxCell id="O2hOXgRRqyfRxniLhEDF-6" value="kafka" style="whiteSpace=wrap;html=1;" vertex="1" parent="1">
          <mxGeometry x="340" y="330" width="120" height="60" as="geometry" />
        </mxCell>
        <mxCell id="O2hOXgRRqyfRxniLhEDF-13" value="" style="edgeStyle=orthogonalEdgeStyle;rounded=0;orthogonalLoop=1;jettySize=auto;html=1;" edge="1" parent="1" source="O2hOXgRRqyfRxniLhEDF-8" target="O2hOXgRRqyfRxniLhEDF-6">
          <mxGeometry relative="1" as="geometry" />
        </mxCell>
        <mxCell id="O2hOXgRRqyfRxniLhEDF-16" value="" style="edgeStyle=orthogonalEdgeStyle;rounded=0;orthogonalLoop=1;jettySize=auto;html=1;" edge="1" parent="1" source="O2hOXgRRqyfRxniLhEDF-8" target="O2hOXgRRqyfRxniLhEDF-15">
          <mxGeometry relative="1" as="geometry" />
        </mxCell>
        <mxCell id="O2hOXgRRqyfRxniLhEDF-8" value="消费线程" style="whiteSpace=wrap;html=1;" vertex="1" parent="1">
          <mxGeometry x="150" y="330" width="120" height="60" as="geometry" />
        </mxCell>
        <mxCell id="O2hOXgRRqyfRxniLhEDF-10" value="要发送的消息上报kafka" style="text;html=1;align=center;verticalAlign=middle;resizable=0;points=[];autosize=1;strokeColor=none;fillColor=none;" vertex="1" parent="1">
          <mxGeometry x="290" y="230" width="140" height="20" as="geometry" />
        </mxCell>
        <mxCell id="O2hOXgRRqyfRxniLhEDF-14" value="监听topic" style="text;html=1;align=center;verticalAlign=middle;resizable=0;points=[];autosize=1;strokeColor=none;fillColor=none;" vertex="1" parent="1">
          <mxGeometry x="270" y="340" width="60" height="20" as="geometry" />
        </mxCell>
        <mxCell id="O2hOXgRRqyfRxniLhEDF-15" value="反馈接收方" style="whiteSpace=wrap;html=1;" vertex="1" parent="1">
          <mxGeometry x="-30" y="450" width="120" height="60" as="geometry" />
        </mxCell>
        <mxCell id="O2hOXgRRqyfRxniLhEDF-17" value="发送http消息反馈数据" style="text;html=1;align=center;verticalAlign=middle;resizable=0;points=[];autosize=1;strokeColor=none;fillColor=none;" vertex="1" parent="1">
          <mxGeometry x="5" y="340" width="130" height="20" as="geometry" />
        </mxCell>
        <mxCell id="O2hOXgRRqyfRxniLhEDF-18" value="" style="endArrow=none;dashed=1;html=1;dashPattern=1 3;strokeWidth=2;rounded=0;fillColor=#f8cecc;strokeColor=#b85450;" edge="1" parent="1">
          <mxGeometry width="50" height="50" relative="1" as="geometry">
            <mxPoint x="125" y="530" as="sourcePoint" />
            <mxPoint x="125" y="170" as="targetPoint" />
          </mxGeometry>
        </mxCell>
        <mxCell id="O2hOXgRRqyfRxniLhEDF-19" value="" style="endArrow=none;dashed=1;html=1;dashPattern=1 3;strokeWidth=2;rounded=0;fillColor=#f8cecc;strokeColor=#b85450;" edge="1" parent="1">
          <mxGeometry width="50" height="50" relative="1" as="geometry">
            <mxPoint x="290" y="530.0000000000001" as="sourcePoint" />
            <mxPoint x="290" y="170" as="targetPoint" />
          </mxGeometry>
        </mxCell>
      </root>
    </mxGraphModel>
  </diagram>
</mxfile>
